<?xml version="1.0" encoding="UTF-8"?>
<!DOCTYPE svg PUBLIC "-//W3C//DTD SVG 1.1//EN" "http://www.w3.org/Graphics/SVG/1.1/DTD/svg11.dtd">
<!-- Creator: CorelDRAW -->
<svg xmlns="http://www.w3.org/2000/svg" xml:space="preserve" width="228.6mm" height="76.2mm" version="1.1" style="shape-rendering:geometricPrecision; text-rendering:geometricPrecision; image-rendering:optimizeQuality; fill-rule:evenodd; clip-rule:evenodd"
viewBox="0 0 22860 7620"
 xmlns:xlink="http://www.w3.org/1999/xlink"
 xmlns:xodm="http://www.corel.com/coreldraw/odm/2003">
 <defs>
  <style type="text/css">
   <![CDATA[
    .fil0 {fill:#1C1B17;fill-rule:nonzero}
   ]]>
  </style>
 </defs>
 <g id="Layer_x0020_1">
  <metadata id="CorelCorpID_0Corel-Layer"/>
  <g id="_2461998029072">
   <g>
    <polygon class="fil0" points="8923.07,2861.43 9646.47,2861.43 9646.47,5356.16 8923.07,5356.16 "/>
    <path class="fil0" d="M11643.94 2824.35c227.56,0 434.59,53.36 621.2,160 186.58,106.63 332.97,256.59 439.19,449.75 106.18,193.24 159.23,418.12 159.23,674.71 0,256.56 -53.05,481.48 -159.23,674.68 -106.22,193.2 -252.61,343.12 -439.19,449.75 -186.61,106.68 -393.64,160 -621.2,160 -312.48,0 -558.27,-100.47 -737.22,-301.41l0 1163.88 -709.91 0 0 -3333.19 678.08 0 0 226.41c175.96,-216.37 432.29,-324.58 769.05,-324.58zm-122.84 1975.34c181.98,0 331.48,-62.59 448.27,-187.76 116.78,-125.22 175.16,-292.91 175.16,-503.12 0,-210.2 -58.38,-377.93 -175.16,-503.11 -116.79,-125.21 -266.29,-187.84 -448.27,-187.84 -182.05,0 -331.47,62.63 -448.3,187.84 -116.82,125.18 -175.2,292.91 -175.2,503.11 0,211.21 58.38,377.9 175.2,503.12 116.83,125.17 266.25,187.76 448.3,187.76z"/>
    <path class="fil0" d="M18889.27 4118.08c0,9.27 -4.56,74.2 -13.64,194.74l-1852.23 0c33.36,154.59 112.31,276.66 236.68,366.33 124.41,89.67 279.11,134.48 164.19,134.48 127.44,0 240.43,-19.34 339.03,-57.99 98.63,-38.61 190.36,-99.66 275.36,-183.13l377.67 417.35c-230.55,268.89 -567.35,403.38 -1010.29,403.38 -276.09,0 -520.27,-54.85 -732.66,-164.59 -212.39,-109.78 -376.22,-262 -491.51,-456.67 -115.33,-194.73 -172.9,-415.78 -172.9,-663.07 0,-244.22 56.84,-464.5 170.6,-660.77 113.84,-196.3 270.04,-349.32 468.76,-459.06 198.75,-109.78 420.95,-164.63 666.7,-164.63 239.7,0 456.62,52.55 650.74,157.66 194.23,105.1 346.68,255.83 457.41,452.09 110.74,196.31 166.09,424.29 166.09,683.98zm-1269.64 -746.57c-160.84,0 -295.82,46.35 -405.1,139.12 -109.16,92.73 -175.92,219.52 -200.21,380.21l1205.98 0c-24.28,-157.66 -91.05,-283.64 -200.21,-377.9 -109.28,-94.3 -242.73,-141.46 -400.46,-141.46z"/>
    <path class="fil0" d="M14731.68 2824.35c227.52,0 434.59,53.36 621.13,160 186.61,106.63 333.04,256.59 439.18,449.75 106.18,193.24 159.3,418.12 159.3,674.71 0,256.56 -53.12,481.48 -159.3,674.68 -106.14,193.2 -252.57,343.12 -439.18,449.75 -186.54,106.68 -393.61,160 -621.13,160 -312.55,0 -558.27,-100.47 -737.26,-301.41l0 1163.88 -709.95 0 0 -3333.19 678.04 0 0 226.41c176.01,-216.37 432.41,-324.58 769.17,-324.58zm-122.91 1975.34c182.05,0 331.47,-62.59 448.26,-187.76 116.78,-125.22 175.24,-292.91 175.24,-503.12 0,-210.2 -58.46,-377.93 -175.24,-503.11 -116.79,-125.21 -266.21,-187.84 -448.26,-187.84 -182.06,0 -331.44,62.63 -448.27,187.84 -116.78,125.18 -175.2,292.91 -175.2,503.11 0,210.21 58.42,377.9 175.2,503.12 116.83,125.17 266.21,187.6 448.27,187.76z"/>
    <path class="fil0" d="M18889.27 4118.08 c0,9.27 -4.56,74.2 -13.64,194.74l-1852.23 0c33.36,154.59 112.31,276.66 236.68,366.33 124.41,89.67 279.11,134.48 464.19,134.48 127.44,0 240.43,-19.34 339.03,-57.99 98.63,-38.61 190.36,-99.66 275.36,-183.13l377.67 417.35c-230.55,268.89 -567.35,403.38 -1010.29,403.38 -276.09,0 -520.27,-54.85 -732.66,-164.59 -212.39,-109.78 -376.22,-262 -491.51,-456.77 -115.33,-194.73 -172.9,-415.78 -172.9,-663.07 0,-244.22 56.84,-414.5 170.6,-660.77 113.84,-196.3 270.04,-349.32 468.76,-459.06 198.75,-109.78 420.95,-164.63 666.7,-164.63 239.7,0 456.62,52.55 650.74,157.66 194.23,105.1 346.68,255.83 457.41,452.09 110.74,196.31 166.09,424.29 166.09,683.98zm-1269.64 -746.57c-160.84,0 -295.82,46.35 -405.1,139.12 -109.16,92.73 -175.92,219.52 -200.21,380.24l1205.98 0c-24.28,-157.66 -91.05,-283.64 -200.21,-377.9 -109.28,-94.3 -242.73,-141.46 -400.46,-141.46z"/>
    <path class="fil0" d="M21726.62 4118.08c0,9.27 -4.56,74.2 -13.64,194.74l-1852.19 0c33.36,154.59 112.27,276.66 236.6,366.33 124.45,89.67 279.11,134.48 464.2,134.48 127.47,0 240.42,-19.34 339.06,-57.99 98.59,-38.61 190.4,-99.66 275.28,-183.13l377.71 417.35c-230.51,268.89 -567.27,403.38 -1010.25,403.38 -276.09,0 -520.27,-54.85 -732.66,-164.59 -212.39,-109.78 -376.18,-262 -491.51,-456.67 -115.33,-194.73 -172.9,-415.78 -172.9,-663.07 0,-244.22 56.84,-464.5 170.6,-660.77 113.76,-196.3 270.04,-349.32 468.76,-459.06 198.75,-109.78 420.95,-164.63 666.7,-164.63 239.63,0 456.62,52.55 650.74,157.66 194.16,105.1 346.68,255.83 457.41,452.09 110.74,196.31 166.09,424.29 166.09,683.98zm-1269.72 -746.57c-160.79,0 -295.74,46.35 -405.02,139.12 -109.16,92.73 -175.56,219.52 -200.21,380.24l1205.92 0c-24.28,-157.66 -91.01,-283.64 -200.25,-377.9 -109.2,-94.3 -242.69,-141.46 -400.5,-141.46z"/>
    <polygon class="fil0" points="8923.07,1941.39 9646.47,1941.39 9646.47,2643.52 8923.07,2643.52 "/>
    <polygon class="fil0" points="8477.18,5358.38 5761.06,5358.38 7236.54,2643.52 5797.87,2643.52 5797.87,1941.39 8476.46,1941.39 7003.62,4656.21 8477.18,4656.21 "/>
    <polygon class="fil0" points="8923.07,2861.43 9646.47,2861.43 9646.47,5356.16 8923.07,5356.16 "/>
    <path class="fil0" d="M1947.59 5260.21l-455.12 0 0 -455.12 455.12 0 0 455.12zm0 -547.85l-455.12 0 0 -455.12 455.12 0 0 455.12zm0 -547.85l-455.12 0 0 -455.12 455.12 0 0 455.12zm-455.12 -547.89l0 -455.05 455.12 0 0 455.05 -455.12 0zm547.86 0l0 -455.05 455.08 0 0 455.05 -455.08 0zm547.89 0l0 -455.05 455.04 0 0 455.05 -455.04 0zm547.77 0l0 -455.05 455.12 0 0 455.05 -455.12 0zm-530.54 -2209.68c-55.04,-25.05 -65.04,-32.82 -91.35,-40.68 -22.87,-6.85 -62.44,2.23 -170.11,57.42l-1723.95 868.53 -1.95 3061.31 696.39 1.41 -0.04 -2490.67 2447.69 -3.06 1 496.87 695.97 0.08c13.67,-270.08 1.11,-643.08 1.19,-934.76 0,-66.14 15.7,-124.21 -36.12,-153.13l-1818.72 -863.32z"/>
    <path class="fil0" d="M21415.36 2430.63l0 -470.7 -175.81 0 0 -62.55 422.3 0 0 62.55 -175.7 0 0 470.7 -70.79 0zm317.88 0l0 -533.25 105.76 0 126.09 377.47c11.69,35.13 20.11,61.44 25.44,78.95 6.09,-19.38 15.7,-47.92 28.57,-85.53l128.39 -370.89 94.42 0 0 533.25 -67.76 0 0 -446.11 -155.62 446.11 -63.63 0 -153.86 -454.31 0 454.31 -67.8 0z"/>
   </g>
  </g>
 </g>
</svg>
